<?xml version="1.0" encoding="UTF-8"?>
<svg xmlns="http://www.w3.org/2000/svg" xmlns:xlink="http://www.w3.org/1999/xlink" width="64px" height="64px" viewBox="0 0 64 64" version="1.1">
<g id="surface1">
<path style=" stroke:none;fill-rule:nonzero;fill:rgb(6.27451%,7.843138%,7.843138%);fill-opacity:1;" d="M 32.375 30.625 C 32.242188 30.730469 32.117188 30.746094 31.515625 30.75 C 31.128906 30.75 30.8125 30.738281 30.8125 30.722656 C 30.8125 30.6875 31.792969 29.960938 34.1875 28.21875 C 35.269531 27.433594 36.929688 26.207031 37.875 25.496094 C 39.386719 24.359375 40.191406 23.726562 43.296875 21.230469 C 43.683594 20.917969 43.992188 20.660156 43.984375 20.652344 C 43.976562 20.644531 43.476562 20.882812 42.875 21.179688 C 39.636719 22.789062 35.839844 24.339844 32.21875 25.53125 C 31.359375 25.8125 30.578125 26.0625 30.484375 26.085938 L 30.308594 26.128906 L 30.328125 25.238281 L 30.34375 24.347656 L 30.695312 24.242188 C 31.097656 24.117188 33.378906 23.261719 33.90625 23.035156 C 34.007812 22.988281 34.402344 22.824219 34.78125 22.667969 C 35.160156 22.511719 35.792969 22.246094 36.1875 22.074219 C 36.582031 21.902344 37.144531 21.660156 37.4375 21.535156 C 39.152344 20.800781 43.519531 18.589844 44.84375 17.785156 C 44.980469 17.699219 45.277344 17.527344 45.5 17.398438 C 45.722656 17.269531 45.976562 17.117188 46.0625 17.058594 C 46.578125 16.710938 46.96875 16.457031 47.117188 16.378906 C 47.671875 16.082031 49.976562 14.464844 50.9375 13.695312 C 52.871094 12.152344 53.875 11.117188 55.703125 8.8125 L 55.875 8.59375 L 55.785156 8.84375 C 54.769531 11.6875 53.320312 13.910156 50.699219 16.632812 C 50.28125 17.066406 49.609375 17.714844 49.207031 18.070312 C 48.804688 18.425781 48.371094 18.820312 48.25 18.945312 C 48.125 19.070312 47.9375 19.222656 47.839844 19.289062 C 47.738281 19.351562 47.621094 19.453125 47.574219 19.515625 C 47.53125 19.574219 47.453125 19.625 47.402344 19.625 C 47.351562 19.625 47.292969 19.664062 47.273438 19.714844 C 47.234375 19.820312 46.535156 20.375 46.441406 20.375 C 46.40625 20.375 46.375 20.402344 46.375 20.433594 C 46.375 20.519531 41.140625 24.4375 41.027344 24.4375 C 41.003906 24.4375 40.953125 24.476562 40.914062 24.523438 C 40.875 24.570312 40.519531 24.839844 40.125 25.125 C 39.730469 25.414062 39.261719 25.753906 39.089844 25.886719 C 38.914062 26.015625 38.738281 26.125 38.699219 26.125 C 38.65625 26.125 38.625 26.152344 38.625 26.1875 C 38.625 26.222656 38.585938 26.25 38.535156 26.25 C 38.488281 26.25 38.4375 26.277344 38.425781 26.308594 C 38.402344 26.371094 36.769531 27.558594 36.628906 27.613281 C 36.582031 27.632812 36.496094 27.691406 36.4375 27.75 C 36.292969 27.894531 32.640625 30.5 32.582031 30.5 C 32.554688 30.5 32.460938 30.558594 32.375 30.625 Z M 32.691406 48.65625 L 32.6875 55.75 L 30.5 55.75 L 30.5 45.5 L 33.542969 45.5 L 34.328125 47.359375 C 34.988281 48.914062 35.515625 50.210938 35.960938 51.363281 C 36.003906 51.476562 36.066406 51.5625 36.097656 51.550781 C 36.128906 51.539062 36.300781 51.152344 36.476562 50.6875 C 36.808594 49.808594 37.085938 49.136719 38.0625 46.859375 L 38.644531 45.5 L 40.203125 45.5 C 41.601562 45.5 41.757812 45.511719 41.726562 45.597656 C 41.703125 45.652344 41.6875 47.960938 41.6875 50.722656 L 41.6875 55.75 L 39.5625 55.75 L 39.5625 52.207031 C 39.5625 50.257812 39.539062 48.6875 39.511719 48.722656 C 39.4375 48.804688 38.34375 51.320312 37.523438 53.296875 L 36.84375 54.9375 L 35.355469 54.90625 L 34.984375 54.03125 C 34.78125 53.550781 34.328125 52.496094 33.984375 51.6875 C 33.636719 50.878906 33.203125 49.867188 33.019531 49.4375 Z M 46.296875 53.59375 L 45.546875 55.75 L 44.359375 55.75 C 43.253906 55.75 43.175781 55.742188 43.21875 55.640625 C 43.328125 55.371094 45.15625 50.535156 46.050781 48.15625 L 47.035156 45.53125 L 49.699219 45.53125 L 50.589844 47.9375 C 51.078125 49.261719 51.855469 51.355469 52.3125 52.59375 C 52.765625 53.832031 53.21875 55.046875 53.3125 55.296875 L 53.488281 55.753906 L 51.046875 55.71875 L 50.28125 53.5625 Z M 25.6875 55.816406 C 25.0625 55.996094 23.667969 56.042969 23.039062 55.902344 C 22.433594 55.765625 21.664062 55.472656 21.304688 55.246094 C 20.902344 54.984375 20.449219 54.484375 20.199219 54.011719 C 19.828125 53.3125 19.816406 53.164062 19.8125 49.140625 L 19.8125 45.5 L 22 45.5 L 22 52.46875 L 22.179688 52.84375 C 22.636719 53.816406 23.839844 54.328125 24.84375 53.984375 C 25.464844 53.769531 26.089844 53.140625 26.25 52.574219 C 26.289062 52.429688 26.3125 51.058594 26.3125 48.921875 L 26.3125 45.5 L 28.507812 45.5 L 28.488281 49.296875 C 28.46875 53.089844 28.46875 53.09375 28.324219 53.5 C 28.117188 54.078125 27.902344 54.417969 27.5 54.816406 C 27.089844 55.21875 26.363281 55.617188 25.6875 55.816406 Z M 18.5625 53.75 L 18.5625 55.75 L 11.6875 55.75 L 11.6875 45.5 L 13.875 45.5 L 13.875 53.75 Z M 12.328125 32.601562 C 11.566406 32.921875 10.933594 33.1875 10.921875 33.1875 C 10.867188 33.183594 10.726562 33.066406 10.75 33.042969 C 10.871094 32.9375 14 31.039062 14.738281 30.625 C 15.339844 30.289062 16.710938 29.621094 17.394531 29.335938 C 17.605469 29.246094 17.894531 29.121094 18.03125 29.058594 C 18.167969 28.996094 18.605469 28.8125 19 28.65625 C 19.714844 28.367188 20.300781 28.125 20.65625 27.96875 C 20.875 27.875 22.707031 27.207031 24 26.75 C 24.5 26.574219 25.039062 26.378906 25.203125 26.3125 L 25.503906 26.191406 L 25.46875 27.652344 L 24.78125 27.898438 C 24.402344 28.03125 23.96875 28.171875 23.8125 28.207031 C 23.65625 28.246094 23.515625 28.296875 23.496094 28.324219 C 23.476562 28.351562 23.316406 28.410156 23.136719 28.453125 C 22.957031 28.496094 22.8125 28.550781 22.8125 28.578125 C 22.8125 28.605469 22.777344 28.625 22.730469 28.625 C 22.6875 28.625 22.25 28.777344 21.765625 28.960938 C 21.277344 29.144531 20.863281 29.28125 20.84375 29.257812 C 20.824219 29.238281 20.785156 29.25 20.761719 29.285156 C 20.71875 29.347656 19.390625 29.875 19.277344 29.875 C 19.246094 29.875 19.105469 29.929688 18.96875 29.996094 C 18.542969 30.203125 18.078125 30.375 17.945312 30.375 C 17.875 30.375 17.800781 30.402344 17.78125 30.4375 C 17.761719 30.472656 17.6875 30.5 17.621094 30.5 C 17.554688 30.5 17.5 30.523438 17.5 30.550781 C 17.5 30.578125 17.238281 30.691406 16.921875 30.804688 C 16.605469 30.921875 16.269531 31.050781 16.179688 31.101562 C 16.085938 31.148438 15.96875 31.1875 15.917969 31.1875 C 15.792969 31.1875 14.023438 31.882812 12.328125 32.601562 Z M 18.101562 42.183594 C 17.640625 42.53125 17.246094 42.8125 17.21875 42.8125 C 17.101562 42.8125 17.902344 41.679688 18.566406 40.90625 C 19.03125 40.367188 20.285156 39.113281 20.996094 38.476562 C 21.460938 38.058594 22.734375 36.988281 22.898438 36.875 C 22.972656 36.828125 23.507812 36.40625 24.089844 35.9375 C 25.453125 34.851562 25.5 34.820312 25.5 35.097656 C 25.5 35.289062 25.757812 35.5625 25.9375 35.5625 C 26.058594 35.5625 26.0625 35.574219 25.976562 35.65625 C 25.925781 35.707031 25.855469 35.75 25.816406 35.75 C 25.78125 35.75 25.75 35.777344 25.75 35.804688 C 25.75 35.835938 25.253906 36.28125 24.644531 36.789062 C 24.035156 37.300781 23.453125 37.796875 23.347656 37.890625 C 23.246094 37.984375 23.144531 38.0625 23.125 38.0625 C 23.105469 38.0625 22.894531 38.246094 22.652344 38.46875 C 22.414062 38.691406 22.199219 38.871094 22.171875 38.875 C 22.148438 38.875 21.851562 39.105469 21.515625 39.390625 C 19.351562 41.210938 18.847656 41.621094 18.101562 42.183594 Z M 47.042969 51.578125 C 47.082031 51.648438 49.625 51.636719 49.625 51.566406 C 49.625 51.433594 48.355469 47.9375 48.320312 47.972656 C 48.25 48.039062 47.015625 51.53125 47.042969 51.578125 Z M 42.085938 34.433594 C 41.882812 34.589844 41.742188 34.597656 41.570312 34.453125 C 41.371094 34.285156 41.332031 33.980469 41.492188 33.820312 C 41.660156 33.652344 42.003906 33.644531 42.148438 33.800781 C 42.308594 33.980469 42.277344 34.28125 42.085938 34.433594 Z M 44.265625 27.746094 C 44.160156 27.878906 43.925781 27.945312 43.765625 27.890625 C 43.675781 27.859375 43.5 27.550781 43.5 27.421875 C 43.5 27.277344 43.746094 27.0625 43.910156 27.0625 C 44.097656 27.0625 44.375 27.320312 44.375 27.488281 C 44.375 27.558594 44.324219 27.671875 44.265625 27.746094 Z M 44.683594 31.628906 C 44.636719 31.71875 44.554688 31.75 44.34375 31.75 C 44.132812 31.75 44.050781 31.71875 44.003906 31.628906 C 43.867188 31.375 43.941406 31.082031 44.164062 30.996094 C 44.328125 30.9375 44.707031 31.039062 44.652344 31.132812 C 44.632812 31.160156 44.648438 31.1875 44.683594 31.1875 C 44.769531 31.1875 44.769531 31.472656 44.683594 31.628906 Z M 44.683594 31.628906 "/>
<path style=" stroke:none;fill-rule:nonzero;fill:rgb(82.745099%,63.137257%,34.509805%);fill-opacity:1;" d="M 14.988281 30.488281 C 15.417969 30.246094 15.5625 30.132812 15.546875 30.066406 C 15.523438 29.984375 15.558594 29.96875 15.714844 29.988281 C 15.839844 30.003906 16.097656 29.917969 16.597656 29.695312 C 16.046875 29.953125 15.421875 30.257812 14.988281 30.488281 Z M 32.375 30.625 C 32.460938 30.558594 32.554688 30.5 32.582031 30.5 C 32.609375 30.5 33.480469 29.890625 34.382812 29.246094 C 33.304688 30.019531 32.4375 30.664062 32.4375 30.695312 C 32.4375 30.722656 32.070312 30.75 31.625 30.75 C 31.511719 30.75 31.402344 30.75 31.304688 30.746094 C 31.371094 30.75 31.441406 30.75 31.515625 30.75 C 32.117188 30.746094 32.242188 30.730469 32.375 30.625 Z M 12.117188 32.191406 C 13 31.648438 13.730469 31.210938 14.292969 30.882812 C 13.726562 31.21875 12.851562 31.742188 12.117188 32.191406 Z M 37.53125 26.996094 C 37.972656 26.671875 38.414062 26.339844 38.425781 26.308594 C 38.433594 26.289062 38.453125 26.269531 38.480469 26.261719 C 38.453125 26.269531 38.433594 26.289062 38.425781 26.308594 C 38.410156 26.351562 37.976562 26.679688 37.53125 26.996094 Z M 17.316406 29.371094 C 17.480469 29.296875 17.585938 29.25 17.59375 29.25 C 17.59375 29.25 17.59375 29.25 17.597656 29.25 C 17.527344 29.28125 17.457031 29.308594 17.394531 29.335938 C 17.367188 29.347656 17.34375 29.359375 17.316406 29.371094 Z M 18.792969 28.738281 C 18.863281 28.710938 18.933594 28.683594 19 28.65625 C 19.335938 28.519531 19.644531 28.394531 19.914062 28.28125 C 19.644531 28.394531 19.335938 28.519531 19 28.65625 C 18.929688 28.683594 18.859375 28.710938 18.792969 28.738281 Z M 18.792969 28.738281 "/>
<path style=" stroke:none;fill-rule:nonzero;fill:rgb(98.039216%,57.647061%,8.235294%);fill-opacity:1;" d="M 17.316406 29.371094 C 17.113281 29.457031 16.863281 29.570312 16.597656 29.695312 C 16.097656 29.917969 15.839844 30.003906 15.714844 29.988281 C 15.582031 29.972656 15.539062 29.980469 15.539062 30.03125 C 15.515625 29.941406 15.480469 29.804688 15.4375 29.65625 C 14.574219 26.683594 14.542969 23.316406 15.347656 20.25 C 15.804688 18.511719 16.929688 16.132812 17.976562 14.695312 C 18.960938 13.339844 20.617188 11.652344 21.765625 10.824219 C 23.777344 9.382812 25.984375 8.402344 28.277344 7.933594 C 29.308594 7.71875 29.539062 7.6875 30.800781 7.59375 C 32.292969 7.484375 33.699219 7.554688 35.03125 7.8125 C 38.804688 8.539062 41.582031 10 44.222656 12.648438 C 45.3125 13.742188 46.210938 14.90625 47.039062 16.289062 C 47.101562 16.398438 47.164062 16.367188 47.851562 15.914062 C 48.09375 15.75 48.335938 15.589844 48.566406 15.429688 C 47.921875 15.875 47.355469 16.25 47.117188 16.378906 C 46.96875 16.457031 46.578125 16.710938 46.0625 17.058594 C 45.976562 17.117188 45.722656 17.269531 45.5 17.398438 C 45.277344 17.527344 44.980469 17.699219 44.84375 17.785156 C 43.519531 18.589844 39.152344 20.800781 37.4375 21.535156 C 37.144531 21.660156 36.582031 21.902344 36.1875 22.074219 C 35.792969 22.246094 35.160156 22.511719 34.78125 22.667969 C 34.402344 22.824219 34.007812 22.988281 33.90625 23.035156 C 33.378906 23.261719 31.097656 24.117188 30.695312 24.242188 L 30.34375 24.347656 L 30.328125 25.238281 L 30.316406 25.675781 L 30.285156 24.519531 C 30.261719 23.636719 30.261719 20.859375 30.285156 18.34375 C 30.3125 15.832031 30.3125 13.667969 30.285156 13.539062 L 30.242188 13.308594 L 28 13.324219 C 25.941406 13.34375 25.746094 13.351562 25.640625 13.457031 C 25.539062 13.5625 25.53125 13.957031 25.5 20.613281 C 25.492188 22.382812 25.488281 24.367188 25.488281 26.199219 L 25.203125 26.3125 C 25.039062 26.378906 24.5 26.574219 24 26.75 C 22.707031 27.207031 20.875 27.875 20.65625 27.96875 C 20.46875 28.050781 20.214844 28.15625 19.914062 28.28125 L 19.910156 28.285156 C 19.640625 28.394531 19.335938 28.519531 19 28.65625 C 18.933594 28.683594 18.863281 28.710938 18.792969 28.738281 C 18.460938 28.875 18.144531 29.007812 18.03125 29.058594 C 17.933594 29.101562 17.761719 29.179688 17.597656 29.25 C 17.59375 29.25 17.59375 29.25 17.59375 29.25 C 17.585938 29.25 17.480469 29.296875 17.316406 29.371094 Z M 37.53125 26.996094 C 37.976562 26.675781 38.410156 26.351562 38.425781 26.308594 C 38.433594 26.289062 38.453125 26.269531 38.480469 26.261719 C 38.484375 26.257812 38.488281 26.257812 38.492188 26.257812 C 38.496094 26.257812 38.496094 26.253906 38.5 26.253906 C 38.511719 26.25 38.523438 26.25 38.535156 26.25 C 38.585938 26.25 38.625 26.222656 38.625 26.1875 C 38.625 26.152344 38.65625 26.125 38.699219 26.125 C 38.738281 26.125 38.914062 26.015625 39.089844 25.886719 C 39.261719 25.753906 39.730469 25.414062 40.125 25.125 C 40.519531 24.839844 40.875 24.570312 40.914062 24.523438 C 40.953125 24.476562 41.003906 24.4375 41.027344 24.4375 C 41.140625 24.4375 46.375 20.519531 46.375 20.433594 C 46.375 20.402344 46.40625 20.375 46.441406 20.375 C 46.535156 20.375 47.234375 19.820312 47.273438 19.714844 C 47.292969 19.664062 47.351562 19.625 47.402344 19.625 C 47.453125 19.625 47.53125 19.574219 47.574219 19.515625 C 47.621094 19.453125 47.738281 19.351562 47.839844 19.289062 C 47.9375 19.222656 48.125 19.070312 48.25 18.945312 L 48.25 18.941406 L 48.457031 19.628906 C 48.84375 20.902344 49.011719 21.710938 49.160156 22.972656 C 49.289062 24.0625 49.253906 26.503906 49.097656 27.46875 C 48.636719 30.320312 47.632812 32.78125 46.015625 35.03125 C 44.363281 37.324219 42.03125 39.269531 39.511719 40.449219 C 34.980469 42.578125 29.871094 42.660156 25.203125 40.683594 C 24.339844 40.316406 22.804688 39.480469 22.261719 39.078125 L 22.074219 38.9375 C 22.128906 38.898438 22.164062 38.875 22.171875 38.875 C 22.199219 38.871094 22.414062 38.691406 22.652344 38.46875 C 22.894531 38.246094 23.105469 38.0625 23.125 38.0625 C 23.144531 38.0625 23.246094 37.984375 23.347656 37.890625 C 23.453125 37.796875 24.035156 37.300781 24.644531 36.789062 C 25.253906 36.28125 25.75 35.835938 25.75 35.804688 C 25.75 35.777344 25.78125 35.75 25.816406 35.75 C 25.855469 35.75 25.925781 35.707031 25.976562 35.65625 C 26.0625 35.574219 26.058594 35.5625 25.9375 35.5625 C 25.875 35.5625 25.800781 35.527344 25.734375 35.476562 C 25.929688 35.558594 26.660156 35.5625 32.035156 35.5625 C 36.609375 35.5625 38.285156 35.542969 38.402344 35.488281 C 38.503906 35.445312 38.585938 35.335938 38.625 35.191406 C 38.660156 35.066406 38.6875 34.113281 38.6875 32.992188 C 38.6875 31.199219 38.675781 31 38.578125 30.882812 C 38.46875 30.75 38.457031 30.75 34.625 30.734375 L 32.300781 30.726562 C 32.386719 30.714844 32.4375 30.703125 32.4375 30.695312 C 32.4375 30.664062 33.304688 30.019531 34.382812 29.246094 C 35.351562 28.554688 36.363281 27.824219 36.4375 27.75 C 36.496094 27.691406 36.582031 27.632812 36.628906 27.613281 C 36.699219 27.585938 37.113281 27.296875 37.53125 26.996094 Z M 25.53125 35.222656 C 25.511719 35.179688 25.5 35.136719 25.5 35.097656 C 25.5 34.820312 25.453125 34.851562 24.089844 35.9375 C 23.507812 36.40625 22.972656 36.828125 22.898438 36.875 C 22.757812 36.972656 21.800781 37.773438 21.238281 38.261719 L 20.960938 38.0625 C 20.691406 37.871094 19.484375 36.691406 18.980469 36.132812 C 18.570312 35.679688 17.605469 34.371094 17.242188 33.78125 C 16.953125 33.316406 16.519531 32.503906 16.082031 31.617188 C 16.035156 31.523438 16 31.390625 16 31.320312 C 16 31.25 15.960938 31.191406 15.914062 31.1875 C 15.917969 31.1875 15.917969 31.1875 15.917969 31.1875 C 15.96875 31.1875 16.085938 31.148438 16.179688 31.101562 C 16.269531 31.050781 16.605469 30.921875 16.921875 30.804688 C 17.238281 30.691406 17.5 30.578125 17.5 30.550781 C 17.5 30.523438 17.554688 30.5 17.621094 30.5 C 17.6875 30.5 17.761719 30.472656 17.78125 30.4375 C 17.800781 30.402344 17.875 30.375 17.945312 30.375 C 18.078125 30.375 18.542969 30.203125 18.96875 29.996094 C 19.105469 29.929688 19.246094 29.875 19.277344 29.875 C 19.390625 29.875 20.71875 29.347656 20.761719 29.285156 C 20.785156 29.25 20.824219 29.238281 20.84375 29.257812 C 20.863281 29.28125 21.277344 29.144531 21.765625 28.960938 C 22.25 28.777344 22.6875 28.625 22.730469 28.625 C 22.777344 28.625 22.8125 28.605469 22.8125 28.578125 C 22.8125 28.550781 22.957031 28.496094 23.136719 28.453125 C 23.316406 28.410156 23.476562 28.351562 23.496094 28.324219 C 23.515625 28.296875 23.65625 28.246094 23.8125 28.207031 C 23.96875 28.171875 24.402344 28.03125 24.78125 27.898438 L 25.46875 27.652344 L 25.488281 26.890625 C 25.488281 28.789062 25.492188 30.46875 25.5 31.488281 Z M 42.085938 34.433594 C 42.277344 34.28125 42.308594 33.980469 42.148438 33.800781 C 42.003906 33.644531 41.660156 33.652344 41.492188 33.820312 C 41.332031 33.980469 41.371094 34.285156 41.570312 34.453125 C 41.742188 34.597656 41.882812 34.589844 42.085938 34.433594 Z M 44.265625 27.746094 C 44.324219 27.671875 44.375 27.558594 44.375 27.488281 C 44.375 27.320312 44.097656 27.0625 43.910156 27.0625 C 43.746094 27.0625 43.5 27.277344 43.5 27.421875 C 43.5 27.550781 43.675781 27.859375 43.765625 27.890625 C 43.925781 27.945312 44.160156 27.878906 44.265625 27.746094 Z M 44.683594 31.628906 C 44.769531 31.472656 44.769531 31.1875 44.683594 31.1875 C 44.648438 31.1875 44.632812 31.160156 44.652344 31.132812 C 44.707031 31.039062 44.328125 30.9375 44.164062 30.996094 C 43.941406 31.082031 43.867188 31.375 44.003906 31.628906 C 44.050781 31.71875 44.132812 31.75 44.34375 31.75 C 44.554688 31.75 44.636719 31.71875 44.683594 31.628906 Z M 50.164062 14.289062 C 51.433594 13.335938 52.503906 12.40625 53.441406 11.453125 C 52.695312 12.230469 51.941406 12.894531 50.9375 13.695312 C 50.730469 13.863281 50.460938 14.066406 50.164062 14.289062 Z M 51.15625 16.152344 C 52.179688 15.050781 53.011719 14.023438 53.703125 12.992188 C 53.25 13.675781 52.734375 14.351562 52.152344 15.039062 C 51.859375 15.386719 51.519531 15.765625 51.15625 16.152344 Z M 30.8125 30.71875 L 30.78125 30.71875 L 31.5 30.183594 C 31.617188 30.097656 31.804688 29.957031 32.042969 29.785156 C 31.21875 30.390625 30.839844 30.679688 30.8125 30.71875 Z M 48.660156 18.558594 C 48.828125 18.410156 49.019531 18.234375 49.207031 18.070312 C 49.277344 18.007812 49.359375 17.933594 49.449219 17.851562 C 49.175781 18.109375 48.910156 18.347656 48.660156 18.558594 Z M 20.703125 38.746094 C 19.980469 39.417969 18.976562 40.429688 18.570312 40.90625 C 18.992188 40.410156 20.066406 39.328125 20.703125 38.746094 Z M 19.5 41.078125 C 19.898438 40.75 20.410156 40.320312 21.128906 39.714844 C 20.492188 40.253906 19.957031 40.703125 19.5 41.078125 Z M 30.492188 26.085938 C 30.617188 26.050781 31.378906 25.804688 32.21875 25.53125 C 31.359375 25.8125 30.582031 26.0625 30.492188 26.082031 Z M 55.390625 9.203125 C 55.535156 9.019531 55.65625 8.875 55.703125 8.8125 C 55.59375 8.945312 55.492188 9.078125 55.390625 9.203125 Z M 55.390625 9.203125 "/>
<path style=" stroke:none;fill-rule:nonzero;fill:rgb(99.607843%,99.607843%,99.607843%);fill-opacity:1;" d="M 0 32 L 0 0 L 64 0 L 64 64 L 0 64 Z M 25.6875 55.816406 C 26.363281 55.617188 27.089844 55.21875 27.5 54.816406 C 27.902344 54.417969 28.117188 54.078125 28.324219 53.5 C 28.46875 53.09375 28.46875 53.089844 28.488281 49.296875 L 28.507812 45.5 L 26.3125 45.5 L 26.3125 48.921875 C 26.3125 51.058594 26.289062 52.429688 26.25 52.574219 C 26.089844 53.140625 25.464844 53.769531 24.84375 53.984375 C 23.839844 54.328125 22.636719 53.816406 22.179688 52.84375 L 22 52.46875 L 22 45.5 L 19.8125 45.5 L 19.8125 49.140625 C 19.816406 53.164062 19.828125 53.3125 20.199219 54.011719 C 20.449219 54.484375 20.902344 54.984375 21.304688 55.246094 C 21.664062 55.472656 22.433594 55.765625 23.039062 55.902344 C 23.667969 56.042969 25.0625 55.996094 25.6875 55.816406 Z M 18.5625 54.75 L 18.5625 53.75 L 13.875 53.75 L 13.875 45.5 L 11.6875 45.5 L 11.6875 55.75 L 18.5625 55.75 Z M 32.6875 52.203125 L 32.691406 48.65625 L 33.019531 49.4375 C 33.203125 49.867188 33.636719 50.878906 33.984375 51.6875 C 34.328125 52.496094 34.78125 53.550781 34.984375 54.03125 L 35.355469 54.90625 L 36.101562 54.921875 L 36.84375 54.9375 L 37.523438 53.296875 C 38.34375 51.320312 39.4375 48.804688 39.511719 48.722656 C 39.539062 48.6875 39.5625 50.257812 39.5625 52.207031 L 39.5625 55.75 L 41.6875 55.75 L 41.6875 50.722656 C 41.6875 47.960938 41.703125 45.652344 41.726562 45.597656 C 41.757812 45.511719 41.601562 45.5 40.203125 45.5 L 38.644531 45.5 L 38.0625 46.859375 C 37.085938 49.136719 36.808594 49.808594 36.476562 50.6875 C 36.300781 51.152344 36.128906 51.539062 36.097656 51.550781 C 36.066406 51.5625 36.003906 51.476562 35.960938 51.363281 C 35.515625 50.210938 34.988281 48.914062 34.328125 47.359375 L 33.542969 45.5 L 30.5 45.5 L 30.5 55.75 L 32.6875 55.75 Z M 45.921875 54.671875 L 46.296875 53.59375 L 50.28125 53.5625 L 51.046875 55.71875 L 52.265625 55.734375 L 53.488281 55.753906 L 53.3125 55.296875 C 53.21875 55.046875 52.765625 53.832031 52.3125 52.59375 C 51.855469 51.355469 51.078125 49.261719 50.589844 47.9375 L 49.699219 45.53125 L 47.035156 45.53125 L 46.050781 48.15625 C 45.15625 50.535156 43.328125 55.371094 43.21875 55.640625 C 43.175781 55.742188 43.253906 55.75 44.359375 55.75 L 45.546875 55.75 Z M 18.101562 42.183594 C 18.847656 41.625 19.863281 40.792969 21.511719 39.390625 L 22.054688 38.925781 L 22.261719 39.078125 C 22.804688 39.480469 24.339844 40.316406 25.203125 40.683594 C 29.871094 42.660156 34.980469 42.578125 39.511719 40.449219 C 42.03125 39.269531 44.363281 37.324219 46.015625 35.03125 C 47.632812 32.78125 48.636719 30.320312 49.097656 27.46875 C 49.253906 26.503906 49.289062 24.0625 49.160156 22.972656 C 49.011719 21.710938 48.84375 20.902344 48.457031 19.628906 L 48.242188 18.914062 L 48.542969 18.660156 C 49.65625 17.71875 51.175781 16.195312 52.152344 15.039062 C 53.855469 13.027344 54.972656 11.121094 55.785156 8.84375 L 55.875 8.59375 L 55.703125 8.8125 C 55.609375 8.929688 55.261719 9.367188 54.929688 9.78125 C 53.222656 11.914062 51.066406 13.78125 47.851562 15.914062 C 47.164062 16.367188 47.101562 16.398438 47.039062 16.289062 C 46.210938 14.90625 45.3125 13.742188 44.222656 12.648438 C 41.582031 10 38.804688 8.539062 35.03125 7.8125 C 33.699219 7.554688 32.292969 7.484375 30.800781 7.59375 C 29.539062 7.6875 29.308594 7.71875 28.277344 7.933594 C 25.984375 8.402344 23.777344 9.382812 21.765625 10.824219 C 20.617188 11.652344 18.960938 13.339844 17.976562 14.695312 C 16.929688 16.132812 15.804688 18.511719 15.347656 20.25 C 14.542969 23.316406 14.574219 26.683594 15.4375 29.65625 C 15.503906 29.898438 15.5625 30.109375 15.5625 30.132812 C 15.5625 30.15625 15.226562 30.359375 14.8125 30.589844 C 13.695312 31.207031 10.75 33.003906 10.75 33.070312 C 10.746094 33.222656 11.113281 33.113281 12.332031 32.597656 C 13.996094 31.894531 15.789062 31.1875 15.910156 31.1875 C 15.960938 31.1875 16 31.246094 16 31.320312 C 16 31.390625 16.035156 31.523438 16.082031 31.617188 C 16.519531 32.503906 16.953125 33.316406 17.242188 33.78125 C 17.605469 34.371094 18.570312 35.679688 18.980469 36.132812 C 19.484375 36.691406 20.691406 37.871094 20.960938 38.0625 L 21.246094 38.269531 L 20.953125 38.523438 C 20.398438 38.996094 19.050781 40.34375 18.566406 40.90625 C 17.902344 41.679688 17.101562 42.8125 17.21875 42.8125 C 17.246094 42.8125 17.640625 42.53125 18.101562 42.183594 Z M 47.042969 51.578125 C 47.015625 51.53125 48.25 48.039062 48.320312 47.972656 C 48.355469 47.9375 49.625 51.433594 49.625 51.566406 C 49.625 51.636719 47.082031 51.648438 47.042969 51.578125 Z M 25.679688 35.441406 L 25.53125 35.324219 L 25.5 31.488281 C 25.484375 29.382812 25.484375 24.484375 25.5 20.613281 C 25.53125 13.957031 25.539062 13.5625 25.640625 13.457031 C 25.746094 13.351562 25.941406 13.34375 28 13.324219 L 30.242188 13.308594 L 30.285156 13.539062 C 30.3125 13.667969 30.3125 15.832031 30.285156 18.34375 C 30.261719 20.859375 30.261719 23.636719 30.285156 24.519531 L 30.332031 26.125 L 30.492188 26.082031 C 30.582031 26.0625 31.359375 25.8125 32.21875 25.53125 C 35.839844 24.339844 39.636719 22.789062 42.875 21.179688 C 43.476562 20.882812 43.976562 20.644531 43.984375 20.652344 C 43.992188 20.660156 43.683594 20.917969 43.296875 21.230469 C 40.191406 23.726562 39.386719 24.359375 37.875 25.496094 C 36.929688 26.207031 35.269531 27.433594 34.1875 28.21875 C 33.105469 29.003906 31.894531 29.890625 31.5 30.183594 L 30.78125 30.71875 L 34.625 30.734375 C 38.457031 30.75 38.46875 30.75 38.578125 30.882812 C 38.675781 31 38.6875 31.199219 38.6875 32.992188 C 38.6875 34.113281 38.660156 35.066406 38.625 35.191406 C 38.585938 35.335938 38.503906 35.445312 38.402344 35.488281 C 38.285156 35.542969 36.609375 35.5625 32.035156 35.5625 C 26.015625 35.5625 25.820312 35.558594 25.679688 35.441406 Z M 25.679688 35.441406 "/>
</g>
</svg>
